<svg version="1.1" id="Layer_1" xmlns="http://www.w3.org/2000/svg" xmlns:xlink="http://www.w3.org/1999/xlink" x="0px" y="0px"
	 width="100%" viewBox="0 0 272 144" enable-background="new 0 0 272 144" xml:space="preserve">
<path fill="#000000" opacity="1.000000" stroke="none" 
	d="
M143.438385,50.450211 
	C152.964478,54.557503 162.148163,58.495556 171.322708,62.454815 
	C174.142288,63.671608 176.938034,65.059311 177.011536,68.674232 
	C177.087952,72.431953 174.482010,74.232109 171.420410,75.552956 
	C151.847076,83.997398 132.274551,92.443733 112.697723,100.880096 
	C109.803658,102.127258 106.948380,102.780495 104.445511,100.036034 
	C101.970779,97.322441 102.770355,94.524773 104.220695,91.713547 
	C107.580589,85.200996 110.877640,78.654472 114.349686,72.202179 
	C115.587051,69.902702 115.605141,67.876900 114.378876,65.619942 
	C111.040062,59.474842 107.828537,53.260601 104.491600,47.114456 
	C102.800957,44.000542 101.696617,40.929764 104.550377,37.939354 
	C107.243942,35.116806 110.243240,36.050301 113.292656,37.381992 
	C123.212898,41.714222 133.157349,45.991013 143.438385,50.450211 
z"/>
</svg>